<svg id="Calque_1" data-name="Calque 1" xmlns="http://www.w3.org/2000/svg" viewBox="0 0 367.7 110.4"><defs><style>.cls-1{fill:#da2142;}.cls-1,.cls-2{stroke:#1d1d1b;}.cls-1,.cls-2,.cls-3{stroke-miterlimit:10;}.cls-2,.cls-3{fill:#fff;}.cls-3{stroke:#fff;}.cls-4{fill:#f7f5f5;}</style></defs><title>Logo-1</title><rect class="cls-1" x="0.5" y="0.5" width="366.7" height="109.4"/><path class="cls-2" d="M343.59,298.16a8.78,8.78,0,0,0,.07,1.29" transform="translate(-237.43 -242.96)"/><path class="cls-2" d="M513.19,316.3l-.55-.45" transform="translate(-237.43 -242.96)"/><line class="cls-3" x1="59.34" y1="25.32" x2="13.2" y2="25.32"/><line class="cls-3" x1="21.76" y1="32.39" x2="66.41" y2="32.39"/><line class="cls-3" x1="214.5" y1="60.67" x2="237.95" y2="60.67"/><path class="cls-4" d="M314.55,262.36H343.9l-3.79,8.93H320.88L313,289.79h15.49l-3.87,9.11H309.16l-9.09,21.42H322.3l-3.83,9H286.12Z" transform="translate(-237.43 -242.96)"/><path class="cls-4" d="M343.33,327.57a11.22,11.22,0,0,1-4.41-7.66c-.5-3.31.18-7.18,2.07-11.62a38.72,38.72,0,0,1,7.38-11.48,34.05,34.05,0,0,1,10.4-7.66,28.1,28.1,0,0,1,12.1-2.73,14.41,14.41,0,0,1,6.29,1.28,10.79,10.79,0,0,1,4,3.14,5.94,5.94,0,0,1,1.35,3.69l3.16-7h9.39l-17.76,41.83h-9.29L371,322a25.92,25.92,0,0,1-8.11,5.79,23.33,23.33,0,0,1-10.27,2.5A15.26,15.26,0,0,1,343.33,327.57ZM368,318.45a21.7,21.7,0,0,0,7.56-9.43l.27-.64a14.36,14.36,0,0,0,1.34-7,6.9,6.9,0,0,0-2.42-4.83,8.24,8.24,0,0,0-5.46-1.74,16.78,16.78,0,0,0-10.63,3.79,24.31,24.31,0,0,0-7.34,9.79q-2.59,6.11-1.06,9.89t7.47,3.78A17.64,17.64,0,0,0,368,318.45Z" transform="translate(-237.43 -242.96)"/><path class="cls-4" d="M414.93,295.53h-7.38l3.4-8h7.38l7.24-17,10.86-2.18-8.16,19.22h9.66l-3.41,8h-9.66l-14.35,33.81h-9.93Z" transform="translate(-237.43 -242.96)"/><path class="cls-4" d="M541.23,295.53h-7.38l3.41-8h7.38l7.23-17,10.86-2.18-8.16,19.22h9.66l-3.4,8h-9.66l-14.35,33.81h-9.94Z" transform="translate(-237.43 -242.96)"/><path class="cls-4" d="M513.65,321.53C509.48,318,511.3,324,511.3,324c-5.4-3.56-2.77,3.55-2.77,3.55-5.94-4.59-4.15,1.78-4.15,1.78-5-2.47-5.68,1.11-5.71,3-2-7.63,0-17.89.54-26.54.63-11,5.21-14,5.21-14,4.28-1.84,7.6-1.88,10.07-1.22a10.12,10.12,0,0,1,5.83,4.06C525.9,299.08,519.27,310.85,513.65,321.53Z" transform="translate(-237.43 -242.96)"/><path class="cls-4" d="M520.38,285.09s-6.25,3.59-5.61,6.19c0,0,8.93,4.93,17.84-6.74C532.61,284.54,529.19,281.31,520.38,285.09Z" transform="translate(-237.43 -242.96)"/><path class="cls-4" d="M513.75,290.77s-12.2-.69-13-13.7c0,0,10.32-1.33,14,12.9Z" transform="translate(-237.43 -242.96)"/><path class="cls-4" d="M512.7,284.68c2.48-12.22,6.75-12.13,6.75-12.13,5.08,4.89,0,13.12,0,13.12l-4.73,4.3Z" transform="translate(-237.43 -242.96)"/><line class="cls-4" x1="263.27" y1="54.62" x2="269.58" y2="54.62"/><line class="cls-4" x1="261.67" y1="64.29" x2="267.5" y2="64.29"/><line class="cls-4" x1="260.73" y1="74.51" x2="266.42" y2="74.51"/><line class="cls-4" x1="260.45" y1="83.89" x2="263.58" y2="83.89"/></svg>